<?xml version="1.0" encoding="utf-8"?>
<!-- Generator: Adobe Illustrator 27.9.4, SVG Export Plug-In . SVG Version: 9.03 Build 54784)  -->
<svg version="1.1" id="Calque_1" xmlns="http://www.w3.org/2000/svg" xmlns:xlink="http://www.w3.org/1999/xlink" x="0px" y="0px"
 viewBox="0 0 381 427" style="enable-background:new 0 0 381 427;" xml:space="preserve">
<path d="M354.5,177h13c7.5,0,13.5,6,13.5,13.5l0,0c0,7.5-6,13.5-13.5,13.5h-13c-7.5,0-13.5-6-13.5-13.5l0,0
C341,183,347,177,354.5,177z M13.5,177h13c7.5,0,13.5,6,13.5,13.5l0,0c0,7.5-6,13.5-13.5,13.5h-13C6,204,0,198,0,190.5l0,0
C0,183,6,177,13.5,177z M61.1,91.2L51.9,82c-5.3-5.3-5.3-13.8,0-19.1l0,0c5.3-5.3,13.8-5.3,19.1,0l9.2,9.2c5.3,5.3,5.3,13.8,0,19.1
l0,0C74.9,96.5,66.4,96.5,61.1,91.2z M177,26.5v-13C177,6,183,0,190.5,0l0,0C198,0,204,6,204,13.5v13c0,7.5-6,13.5-13.5,13.5l0,0
C183,40,177,34,177,26.5z M300.5,72.1l9.2-9.2c5.3-5.3,13.8-5.3,19.1,0l0,0c5.3,5.3,5.3,13.8,0,19.1l-9.2,9.2
c-5.3,5.3-13.8,5.3-19.1,0l0,0C295.3,85.9,295.3,77.4,300.5,72.1z M157.5,363h66c7.5,0,13.5,6,13.5,13.5l0,0c0,7.5-6,13.5-13.5,13.5
h-66c-7.5,0-13.5-6-13.5-13.5l0,0C144,369,150,363,157.5,363z M182,395.5h16c7.5,0,13.5,6,13.5,13.5l0,0c0,7.5-6,13.5-13.5,13.5h-16
c-7.5,0-13.5-6-13.5-13.5l0,0C168.5,401.5,174.5,395.5,182,395.5z M51.5,290.7l9.2-9.2c5.3-5.3,13.8-5.3,19.1,0l0,0
c5.3,5.3,5.3,13.8,0,19.1l-9.2,9.2c-5.3,5.3-13.8,5.3-19.1,0l0,0C46.3,304.6,46.3,296,51.5,290.7z M331.1,291l-9.2-9.2
c-5.3-5.3-13.8-5.3-19.1,0l0,0c-5.3,5.3-5.3,13.8,0,19.1l9.2,9.2c5.3,5.3,13.8,5.3,19.1,0l0,0C336.4,304.9,336.4,296.3,331.1,291z
 M190,69c-66.8,0-121,54.2-121,121c0,47.4,27.3,88.5,67,108.3V329c0,14.9,12.1,27,27,27h54c14.9,0,27-12.1,27-27v-30.7
c39.7-19.8,67-60.9,67-108.3C311,123.2,256.8,69,190,69z M224,277.7V322c0,7.7-6.3,14-14,14h-40c-7.7,0-14-6.3-14-14v-44.3
C120.9,264,96,229.9,96,190c0-51.9,42.1-94,94-94c51.9,0,94,42.1,94,94C284,229.9,259.1,264,224,277.7z"/>
</svg>