<svg width="381" height="427" viewBox="0 0 381 427" fill="none" xmlns="http://www.w3.org/2000/svg"><rect x="144" y="363" width="93" height="27" rx="13.5" fill="#000"/><rect x="169" y="400" width="43" height="27" rx="13.5" fill="#000"/><rect x="128" y="326" width="122" height="27" rx="13.5" fill="#000"/><rect x="42" y="300.284" width="40" height="27" rx="13.5" transform="rotate(-45 42 300.284)" fill="#000"/><rect width="40" height="27" rx="13.5" transform="scale(-1 1)rotate(-45 192.507 561.543)" fill="#000"/><path fill="#000" d="M223 299h-27v27h27zm-41 27v-27h-27v27z"/><rect x="128" y="353" width="81" height="27" rx="13.5" transform="rotate(-90 128 353)" fill="#000"/><rect x="223" y="353" width="77" height="27" rx="13.5" transform="rotate(-90 223 353)" fill="#000"/><circle cx="190.5" cy="190.5" r="107" stroke="#000" stroke-width="27"/><rect width="45" height="48" rx="15" transform="matrix(-1 0 0 1 223 278)" fill="#fff"/><rect width="45" height="48" rx="15" transform="matrix(0 -1 -1 0 203 326)" fill="#fff"/><circle cx="190" cy="190" r="94" fill="#fff"/><path fill="#fff" d="M155 251h68v60h-68z"/><rect x="341" y="177" width="40" height="27" rx="13.5" fill="#000"/><rect y="177" width="40" height="27" rx="13.5" fill="#000"/><rect x="70.64" y="100.732" width="40" height="27" rx="13.5" transform="rotate(-135 70.64 100.732)" fill="#000"/><rect x="177" y="40" width="40" height="27" rx="13.5" transform="rotate(-90 177 40)" fill="#000"/><rect x="291" y="81.64" width="40" height="27" rx="13.5" transform="rotate(-45 291 81.64)" fill="#000"/></svg>