<?xml version="1.0" encoding="UTF-8"?>
<svg id="Calque_4" data-name="Calque 4" xmlns="http://www.w3.org/2000/svg" viewBox="0 0 990 990">
  <circle cx="495" cy="495" r="475" style="fill: none; isolation: isolate; stroke: #2e4798; stroke-miterlimit: 10; stroke-width: 40px;"/>
  <path d="m635,693h-280c-5.52,0-10-4.48-10-10v-380c0-5.52,4.48-10,10-10h280c5.52,0,10,4.48,10,10v380c0,5.52-4.48,10-10,10Zm-77.5,46.46v-46.46h-125v46.46c21.48,21.48,33.52,33.52,55,55h15c21.48-21.48,33.52-33.52,55-55Zm-62.5-219.46c-35.9,0-65,29.1-65,65s29.1,65,65,65,65-29.1,65-65-29.1-65-65-65Zm-150,19h-205c-13.81,0-25,11.19-25,25h0c0,13.81,11.19,25,25,25h205v-50Zm0-179h-205c-13.81,0-25,11.19-25,25h0c0,13.81,11.19,25,25,25h205v-50Zm300,50h205c13.81,0,25-11.19,25-25h0c0-13.81-11.19-25-25-25h-205v50Zm0,179h205c13.81,0,25-11.19,25-25h0c0-13.81-11.19-25-25-25h-205v50Z" style="fill: none; stroke: #2e4798; stroke-miterlimit: 10; stroke-width: 19px;"/>
</svg>
