<svg id="ordersListHome" width="257" height="249" viewBox="0 0 257 249" fill="none" xmlns="http://www.w3.org/2000/svg"><rect x="60" y="90" width="159" height="27" rx="13.5" transform="rotate(90 60 90)" fill="#000"/><rect x="147.522" y="19.092" width="181.491" height="27" rx="13.5" transform="rotate(135 147.522 19.092)" fill="#000"/><rect x="237.333" y="147.425" width="181.491" height="27" rx="13.5" transform="rotate(-135 237.333 147.425)" fill="#000"/><path d="M184.5 90 183 48h36l-2 42zM223 45a3 3 0 0 1-3 3h-38a3 3 0 0 1-3-3V25a3 3 0 0 1 3-3h38a3 3 0 0 1 3 3z" fill="#000"/><rect x="223" y="90" width="159" height="27" rx="13.5" transform="rotate(90 223 90)" fill="#000"/><rect x="223" y="249" width="190" height="27" rx="13.5" transform="rotate(180 223 249)" fill="#000"/><path d="m60.77 107.423-.515-.514.062-.063.23.229.274-.274-.23-.229.063-.062.514.514-.062.063-.23-.23-.274.274.23.23zm.68-.664a.24.24 0 0 1-.117.067.24.24 0 0 1-.13-.009.3.3 0 0 1-.127-.082.34.34 0 0 1-.084-.127.24.24 0 0 1-.008-.131.24.24 0 0 1 .067-.117.23.23 0 0 1 .247-.058.3.3 0 0 1 .127.083q.06.06.083.127a.24.24 0 0 1 .008.131.24.24 0 0 1-.066.116m-.054-.053a.14.14 0 0 0 .045-.086.2.2 0 0 0-.015-.091.3.3 0 0 0-.06-.084.3.3 0 0 0-.084-.06.17.17 0 0 0-.092-.016.14.14 0 0 0-.086.044.15.15 0 0 0-.045.086.2.2 0 0 0 .016.092.3.3 0 0 0 .144.144q.045.02.092.016a.15.15 0 0 0 .085-.045m.396-.621-.228-.228.06-.059.385.385-.06.06-.064-.066-.005.004q.017.044.008.093a.17.17 0 0 1-.052.092.2.2 0 0 1-.08.049.16.16 0 0 1-.092-.004.3.3 0 0 1-.098-.066l-.245-.245.06-.059.24.241a.13.13 0 0 0 .091.043.11.11 0 0 0 .086-.035.2.2 0 0 0 .034-.056.14.14 0 0 0 .004-.074.15.15 0 0 0-.044-.075m.3-.583-.039.069a.1.1 0 0 0-.04-.011.1.1 0 0 0-.048.005.1.1 0 0 0-.05.034.14.14 0 0 0-.043.075q-.008.04.018.064a.06.06 0 0 0 .05.019.2.2 0 0 0 .072-.029l.071-.043a.23.23 0 0 1 .116-.039.13.13 0 0 1 .091.041.14.14 0 0 1 .04.078.2.2 0 0 1-.011.094.3.3 0 0 1-.064.094.24.24 0 0 1-.123.072.16.16 0 0 1-.124-.026l.042-.07a.1.1 0 0 0 .077.017.15.15 0 0 0 .075-.044.16.16 0 0 0 .048-.083q.008-.043-.018-.068a.06.06 0 0 0-.048-.019.13.13 0 0 0-.063.022l-.08.05a.2.2 0 0 1-.116.039.14.14 0 0 1-.092-.042.14.14 0 0 1-.04-.076q-.006-.045.012-.09a.3.3 0 0 1 .058-.087.2.2 0 0 1 .115-.065.2.2 0 0 1 .113.019m.565.05a.24.24 0 0 1-.252.064.3.3 0 0 1-.126-.082.35.35 0 0 1-.083-.126.23.23 0 0 1 .056-.249.24.24 0 0 1 .156-.07.2.2 0 0 1 .097.021q.052.022.105.076l.026.025-.298.298-.05-.052.236-.237a.2.2 0 0 0-.071-.045.14.14 0 0 0-.077-.004.15.15 0 0 0-.07.041.15.15 0 0 0-.044.079.2.2 0 0 0 .005.085.2.2 0 0 0 .046.073l.034.034q.045.044.09.059.046.015.088.004a.2.2 0 0 0 .078-.048.2.2 0 0 0 .036-.048.1.1 0 0 0 .013-.053.1.1 0 0 0-.012-.055l.073-.041q.02.038.02.081a.2.2 0 0 1-.018.087.3.3 0 0 1-.058.083m.605-.606a.24.24 0 0 1-.116.067.24.24 0 0 1-.131-.008.3.3 0 0 1-.127-.083.3.3 0 0 1-.083-.127.24.24 0 0 1-.008-.131.23.23 0 0 1 .066-.116.23.23 0 0 1 .247-.058.3.3 0 0 1 .128.083q.06.06.082.126a.24.24 0 0 1 .009.131.24.24 0 0 1-.067.116m-.053-.053a.14.14 0 0 0 .045-.086.2.2 0 0 0-.016-.091.3.3 0 0 0-.144-.144.2.2 0 0 0-.092-.016.14.14 0 0 0-.085.045.14.14 0 0 0-.045.086.2.2 0 0 0 .016.092.3.3 0 0 0 .144.143q.045.022.091.016a.14.14 0 0 0 .086-.045m.096-.777.05.05-.207.208-.05-.05zm.24.531-.439-.439a.13.13 0 0 1-.04-.071.14.14 0 0 1 .008-.073.2.2 0 0 1 .042-.064.2.2 0 0 1 .039-.032l.027-.014.034.068-.016.009-.023.018q-.03.03-.028.058.003.027.03.056l.426.425zm.21-.981.05.05-.2.2-.05-.05zm-.234.049.06-.059.367.368a.1.1 0 0 0 .045.03.05.05 0 0 0 .035-.003.1.1 0 0 0 .044-.038l.008-.012.066.042-.013.021a.17.17 0 0 1-.084.068.14.14 0 0 1-.073.007.13.13 0 0 1-.071-.04zm.544-.052.232.232-.059.059-.514-.514.06-.059.188.189.005-.006a.15.15 0 0 1-.007-.088.2.2 0 0 1 .055-.09.2.2 0 0 1 .085-.054.16.16 0 0 1 .094.002.3.3 0 0 1 .099.066l.245.245-.06.059-.24-.241a.14.14 0 0 0-.096-.047.12.12 0 0 0-.09.04.15.15 0 0 0-.04.065.13.13 0 0 0 0 .072.2.2 0 0 0 .043.07m.76-.28a.25.25 0 0 1-.12.071.23.23 0 0 1-.131-.007.3.3 0 0 1-.126-.082.35.35 0 0 1-.083-.126.24.24 0 0 1-.01-.132.23.23 0 0 1 .066-.117.24.24 0 0 1 .156-.07.2.2 0 0 1 .097.021q.052.022.105.076l.026.025-.298.298-.05-.052.236-.237a.2.2 0 0 0-.071-.045.14.14 0 0 0-.077-.004.15.15 0 0 0-.07.041.15.15 0 0 0-.044.079.2.2 0 0 0 .005.085q.015.042.046.073l.034.034q.045.044.09.059.046.016.088.004a.2.2 0 0 0 .114-.096.1.1 0 0 0 .013-.053.1.1 0 0 0-.012-.055l.073-.041q.02.037.02.081a.2.2 0 0 1-.018.087.3.3 0 0 1-.058.083m.45-.465-.515-.514.06-.06.19.19.004-.005-.007-.043a.2.2 0 0 1 .005-.062.2.2 0 0 1 .047-.073.215.215 0 0 1 .238-.05.35.35 0 0 1 .126.085q.061.06.085.127.024.065.012.127a.2.2 0 0 1-.06.109.2.2 0 0 1-.073.047.14.14 0 0 1-.062.006l-.046-.008-.007.007.06.06zm-.135-.251q.043.043.09.064a.16.16 0 0 0 .09.015.14.14 0 0 0 .078-.042.14.14 0 0 0 .042-.082.2.2 0 0 0-.015-.09.3.3 0 0 0-.062-.088.3.3 0 0 0-.086-.061.16.16 0 0 0-.09-.014.14.14 0 0 0-.081.043.14.14 0 0 0-.043.079.16.16 0 0 0 .014.088q.02.045.063.088m.735-.334a.26.26 0 0 1-.12.072.24.24 0 0 1-.132-.008.3.3 0 0 1-.125-.082.3.3 0 0 1-.083-.126.24.24 0 0 1-.01-.132.23.23 0 0 1 .066-.117.3.3 0 0 1 .07-.049.2.2 0 0 1 .183 0q.052.023.105.077l.025.025-.297.297-.051-.051.237-.237a.2.2 0 0 0-.072-.046.14.14 0 0 0-.147.038.15.15 0 0 0-.044.078.2.2 0 0 0 .006.085q.014.042.046.074l.034.034q.044.044.09.059.045.015.087.003a.2.2 0 0 0 .114-.096.1.1 0 0 0 .014-.053.1.1 0 0 0-.013-.055l.074-.041a.2.2 0 0 1 .02.082.2.2 0 0 1-.018.087.3.3 0 0 1-.059.082m.07-.549.231.232-.059.059-.386-.385.058-.058.06.061.005-.005a.16.16 0 0 1-.006-.089.2.2 0 0 1 .053-.089.2.2 0 0 1 .085-.053.15.15 0 0 1 .094.003q.049.015.097.065l.245.245-.059.059-.24-.241a.14.14 0 0 0-.095-.047.12.12 0 0 0-.09.039.15.15 0 0 0-.04.063.13.13 0 0 0 .002.071.2.2 0 0 0 .044.07m.75-.271a.24.24 0 0 1-.118.068.24.24 0 0 1-.131-.011.3.3 0 0 1-.124-.081.34.34 0 0 1-.082-.125.23.23 0 0 1 .056-.249.3.3 0 0 1 .088-.058.2.2 0 0 1 .096-.011.2.2 0 0 1 .089.037l-.06.059a.13.13 0 0 0-.076-.016.12.12 0 0 0-.083.041.15.15 0 0 0-.033.17.3.3 0 0 0 .062.091q.044.044.092.063a.2.2 0 0 0 .092.012.16.16 0 0 0 .113-.093.12.12 0 0 0-.009-.11l.06-.059a.2.2 0 0 1 .027.181.24.24 0 0 1-.059.091m.058-.538.232.232-.06.06-.513-.515.059-.059.189.189.005-.005a.15.15 0 0 1-.007-.088.2.2 0 0 1 .055-.091.2.2 0 0 1 .085-.053.15.15 0 0 1 .094.002q.048.015.098.065l.245.245-.06.06-.24-.242a.14.14 0 0 0-.095-.047.12.12 0 0 0-.091.04.2.2 0 0 0-.04.065.13.13 0 0 0 0 .072.2.2 0 0 0 .044.07m.76-.006-.03.025-.02.011-.038-.067a.2.2 0 0 0 .042-.034.07.07 0 0 0 .015-.044.2.2 0 0 0-.019-.067l-.019-.041-.53-.245.064-.064.414.201.004-.004-.2-.414.063-.064.279.605q.019.041.022.077a.14.14 0 0 1-.009.067.2.2 0 0 1-.038.058m.393-.393a.2.2 0 0 1-.05.036l-.037-.068a.2.2 0 0 0 .042-.034.07.07 0 0 0 .014-.044.2.2 0 0 0-.018-.066l-.02-.041-.53-.245.065-.065.414.201.004-.004-.201-.414.064-.064.278.606q.02.041.022.076a.15.15 0 0 1-.008.068.2.2 0 0 1-.039.058" fill="#000"/></svg>